<svg xmlns="http://www.w3.org/2000/svg" version="1.1" xmlns:xlink="http://www.w3.org/1999/xlink" xmlns:svgjs="http://svgjs.com/svgjs" width="100%" height="100%" viewBox="0 0 1000 600"><rect width="1000" height="600" x="0" y="0" fill="#ffffff"/><g><circle r="166.66666666666666" cx="254.67222086588538" cy="276.89495323267175" fill="#00" transform="matrix(1.4203649316663436,0,0,1.4203649316663438,0,-93.29190115054679)"/><path d="M234.83021471828962 201.89359062487094L247.10247624549137 201.89359062487094L210.15453772390075 351.8962254138438L198.01343013668438 351.8962254138438L234.83021471828962 201.89359062487094ZM299.0394364796948 201.89359062487094L311.3304342840373 201.89359062487094L274.363759485306 351.8962254138438L262.22265189808957 351.8962254138438L299.0394364796948 201.89359062487094Z " fill="#f7f7f7" transform="matrix(1.4203649316663436,0,0,1.4203649316663438,0,-93.29190115054679)"/><path d="M504.6709200822745 294.82108241276615Q504.6709200822745 277.99361609377434 511.4853485916183 265.2826208743046Q518.299777100962 252.57162565483478 530.204166496877 245.5624991880812Q542.1363698867074 238.55337272132763 556.9612286437696 238.55337272132763L556.9612286437696 238.55337272132763Q569.7556658449864 238.55337272132763 580.7700074355992 244.44993943145366Q591.7843490262119 250.34650614157968 597.597473754591 259.970148036408L597.597473754591 259.970148036408L597.597473754591 201.89452874044974L616.0381517206927 201.89452874044974L616.0381517206927 350.08748832323977L597.597473754591 350.08748832323977L597.597473754591 329.4495048377987Q592.2015589349473 339.2678446900369 581.5766132591541 345.5816213088982Q570.9794815772766 351.89539792775963 556.7387166924441 351.89539792775963L556.7387166924441 351.89539792775963Q542.1363698867074 351.89539792775963 530.204166496877 344.69157350359615Q518.299777100962 337.45993508551703 511.4853485916183 324.4429859329747Q504.6709200822745 311.42603678043236 504.6709200822745 294.82108241276615L504.6709200822745 294.82108241276615ZM597.597473754591 295.0157803701759Q597.597473754591 282.61073908377875 592.5909548497668 273.37649310377003Q587.5844359449429 264.17006111767705 579.0733538067423 259.2747981885158Q570.5622716685414 254.35172126543884 560.3545359014836 254.35172126543884L560.3545359014836 254.35172126543884Q550.1468001344258 254.35172126543884 541.7191599779721 259.16354221285303Q533.319333815434 263.9753631602672 528.3128149106101 273.1817951463602Q523.306296005786 282.38822713245315 523.306296005786 294.82108241276615L523.306296005786 294.82108241276615Q523.306296005786 307.42082165657314 528.3128149106101 316.73850961832886Q533.319333815434 326.0561975800847 541.7191599779721 330.95146050924586Q550.1468001344258 335.87453743232277 560.3545359014836 335.87453743232277L560.3545359014836 335.87453743232277Q570.5622716685414 335.87453743232277 579.0733538067423 330.95146050924586Q587.5844359449429 326.0561975800847 592.5909548497668 316.73850961832886Q597.597473754591 307.42082165657314 597.597473754591 295.0157803701759L597.597473754591 295.0157803701759Z " fill="#ffffff" transform="matrix(1.4203649316663436,0,0,1.4203649316663438,0,-93.29190115054679)"/></g></svg>